<svg width="174" height="40" viewBox="0 0 174 40" fill="none" xmlns="http://www.w3.org/2000/svg">
<path fill-rule="evenodd" clip-rule="evenodd" d="M20 40C31.0458 40 40 31.0457 40 20C40 8.9543 31.0458 0 20 0C8.95429 0 0 8.9543 0 20C0 31.0457 8.95429 40 20 40ZM23.087 15.4526C24.7918 13.7477 24.7918 10.9836 23.087 9.27866C21.3821 7.57378 18.618 7.57378 16.9131 9.27866C15.2083 10.9836 15.2083 13.7477 16.9131 15.4526L20 18.5395L23.087 15.4526ZM24.5475 23.087C26.2524 24.7919 29.0165 24.7919 30.7214 23.087C32.4262 21.3821 32.4262 18.618 30.7214 16.9131C29.0165 15.2083 26.2524 15.2083 24.5475 16.9131L21.4606 20.0001L24.5475 23.087ZM23.087 30.7214C24.7918 29.0165 24.7918 26.2524 23.087 24.5475L20 21.4606L16.9131 24.5475C15.2083 26.2524 15.2083 29.0165 16.9131 30.7214C18.618 32.4263 21.3821 32.4263 23.087 30.7214ZM9.27863 23.087C7.57379 21.3821 7.57379 18.618 9.27863 16.9131C10.9836 15.2083 13.7477 15.2083 15.4526 16.9131L18.5395 20.0001L15.4526 23.087C13.7477 24.7919 10.9836 24.7919 9.27863 23.087Z" fill="#0369A1"/>
<path d="M51.321 28.5V11.0455H58.5312C59.8381 11.0455 60.9659 11.3011 61.9148 11.8125C62.8693 12.3182 63.6051 13.0256 64.1222 13.9347C64.6392 14.8381 64.8977 15.8892 64.8977 17.0881C64.8977 18.2926 64.6335 19.3466 64.1051 20.25C63.5824 21.1477 62.8352 21.8437 61.8636 22.3381C60.892 22.8324 59.7386 23.0795 58.4034 23.0795H53.9545V19.7557H57.6193C58.2557 19.7557 58.7869 19.6449 59.2131 19.4233C59.6449 19.2017 59.9716 18.892 60.1932 18.4943C60.4148 18.0909 60.5256 17.6222 60.5256 17.0881C60.5256 16.5483 60.4148 16.0824 60.1932 15.6903C59.9716 15.2926 59.6449 14.9858 59.2131 14.7699C58.7813 14.554 58.25 14.446 57.6193 14.446H55.5398V28.5H51.321ZM66.9773 28.5V15.4091H71.0256V17.7955H71.1619C71.4006 16.9318 71.7898 16.2898 72.3295 15.8693C72.8693 15.4432 73.4972 15.2301 74.2131 15.2301C74.4063 15.2301 74.6051 15.2443 74.8097 15.2727C75.0142 15.2955 75.2045 15.3324 75.3807 15.3835V19.0057C75.1818 18.9375 74.9205 18.8835 74.5966 18.8438C74.2784 18.804 73.9943 18.7841 73.7443 18.7841C73.25 18.7841 72.804 18.8949 72.4062 19.1165C72.0142 19.3324 71.7045 19.6364 71.4773 20.0284C71.2557 20.4148 71.1449 20.8693 71.1449 21.392V28.5H66.9773ZM82.5099 28.7472C81.1349 28.7472 79.9531 28.4659 78.9645 27.9034C77.9815 27.3352 77.223 26.5455 76.6889 25.5341C76.1605 24.517 75.8963 23.3381 75.8963 21.9972C75.8963 20.6506 76.1605 19.4716 76.6889 18.4602C77.223 17.4432 77.9815 16.6534 78.9645 16.0909C79.9531 15.5227 81.1349 15.2386 82.5099 15.2386C83.8849 15.2386 85.0639 15.5227 86.0469 16.0909C87.0355 16.6534 87.794 17.4432 88.3224 18.4602C88.8565 19.4716 89.1236 20.6506 89.1236 21.9972C89.1236 23.3381 88.8565 24.517 88.3224 25.5341C87.794 26.5455 87.0355 27.3352 86.0469 27.9034C85.0639 28.4659 83.8849 28.7472 82.5099 28.7472ZM82.5355 25.6023C83.0355 25.6023 83.4588 25.4489 83.8054 25.142C84.152 24.8352 84.4162 24.4091 84.598 23.8636C84.7855 23.3182 84.8793 22.6875 84.8793 21.9716C84.8793 21.2443 84.7855 20.608 84.598 20.0625C84.4162 19.517 84.152 19.0909 83.8054 18.7841C83.4588 18.4773 83.0355 18.3239 82.5355 18.3239C82.0185 18.3239 81.581 18.4773 81.223 18.7841C80.8707 19.0909 80.6009 19.517 80.4134 20.0625C80.2315 20.608 80.1406 21.2443 80.1406 21.9716C80.1406 22.6875 80.2315 23.3182 80.4134 23.8636C80.6009 24.4091 80.8707 24.8352 81.223 25.142C81.581 25.4489 82.0185 25.6023 82.5355 25.6023ZM91.2585 11.0455H96.483L100.915 21.8523H101.119L105.551 11.0455H110.776V28.5H106.668V17.7784H106.523L102.33 28.3892H99.7045L95.5114 17.7188H95.3665V28.5H91.2585V11.0455ZM117.097 28.7216C116.262 28.7216 115.521 28.5824 114.873 28.304C114.231 28.0199 113.722 27.5937 113.347 27.0256C112.978 26.4517 112.793 25.733 112.793 24.8693C112.793 24.142 112.921 23.5284 113.177 23.0284C113.433 22.5284 113.785 22.1222 114.234 21.8097C114.683 21.4972 115.2 21.2614 115.785 21.1023C116.37 20.9375 116.995 20.8267 117.66 20.7699C118.404 20.7017 119.004 20.6307 119.458 20.5568C119.913 20.4773 120.242 20.3665 120.447 20.2244C120.657 20.0767 120.762 19.8693 120.762 19.6023V19.5597C120.762 19.1222 120.612 18.7841 120.31 18.5455C120.009 18.3068 119.603 18.1875 119.092 18.1875C118.54 18.1875 118.097 18.3068 117.762 18.5455C117.427 18.7841 117.214 19.1136 117.123 19.5341L113.279 19.3977C113.393 18.6023 113.685 17.892 114.157 17.267C114.634 16.6364 115.288 16.142 116.117 15.7841C116.952 15.4205 117.955 15.2386 119.126 15.2386C119.961 15.2386 120.731 15.3381 121.435 15.5369C122.14 15.7301 122.754 16.0142 123.276 16.3892C123.799 16.7585 124.202 17.2131 124.487 17.7528C124.776 18.2926 124.921 18.9091 124.921 19.6023V28.5H121.001V26.6761H120.898C120.665 27.1193 120.367 27.4943 120.004 27.8011C119.646 28.108 119.222 28.3381 118.734 28.4915C118.251 28.6449 117.705 28.7216 117.097 28.7216ZM118.384 25.9943C118.833 25.9943 119.237 25.9034 119.594 25.7216C119.958 25.5398 120.248 25.2898 120.464 24.9716C120.68 24.6477 120.788 24.2727 120.788 23.8466V22.6023C120.668 22.6648 120.523 22.7216 120.353 22.7727C120.188 22.8239 120.006 22.8722 119.808 22.9176C119.609 22.9631 119.404 23.0028 119.194 23.0369C118.984 23.071 118.782 23.1023 118.589 23.1307C118.197 23.1932 117.862 23.2898 117.583 23.4205C117.31 23.5511 117.1 23.7216 116.952 23.9318C116.81 24.1364 116.739 24.3807 116.739 24.6648C116.739 25.0966 116.893 25.4261 117.2 25.6534C117.512 25.8807 117.907 25.9943 118.384 25.9943ZM138.898 19.4062L135.072 19.5085C135.032 19.2358 134.924 18.9943 134.748 18.7841C134.572 18.5682 134.342 18.4006 134.058 18.2812C133.779 18.1562 133.455 18.0938 133.086 18.0938C132.603 18.0938 132.191 18.1903 131.85 18.3835C131.515 18.5767 131.35 18.8381 131.356 19.1676C131.35 19.4233 131.452 19.6449 131.663 19.8324C131.879 20.0199 132.262 20.1705 132.813 20.2841L135.336 20.7614C136.643 21.0114 137.614 21.4261 138.251 22.0057C138.893 22.5852 139.217 23.3523 139.222 24.3068C139.217 25.2045 138.95 25.9858 138.421 26.6506C137.898 27.3153 137.183 27.8324 136.273 28.2017C135.364 28.5653 134.325 28.7472 133.154 28.7472C131.285 28.7472 129.81 28.3636 128.731 27.5966C127.657 26.8239 127.043 25.7898 126.89 24.4943L131.006 24.392C131.097 24.8693 131.333 25.233 131.714 25.483C132.094 25.733 132.58 25.858 133.171 25.858C133.705 25.858 134.14 25.7585 134.475 25.5597C134.81 25.3608 134.981 25.0966 134.987 24.767C134.981 24.4716 134.85 24.2358 134.594 24.0597C134.339 23.8778 133.938 23.7358 133.393 23.6335L131.109 23.1989C129.796 22.9602 128.819 22.5199 128.177 21.8778C127.535 21.2301 127.217 20.4062 127.222 19.4062C127.217 18.5312 127.45 17.7841 127.921 17.1648C128.393 16.5398 129.063 16.0625 129.933 15.733C130.802 15.4034 131.827 15.2386 133.009 15.2386C134.782 15.2386 136.18 15.6108 137.202 16.3551C138.225 17.0937 138.79 18.1108 138.898 19.4062ZM148.663 15.4091V18.4773H140.405V15.4091H148.663ZM142.135 12.2727H146.303V24.3835C146.303 24.6392 146.342 24.8466 146.422 25.0057C146.507 25.1591 146.629 25.2699 146.788 25.3381C146.947 25.4006 147.138 25.4318 147.359 25.4318C147.518 25.4318 147.686 25.4176 147.862 25.3892C148.044 25.3551 148.18 25.3267 148.271 25.304L148.902 28.3125C148.703 28.3693 148.422 28.4403 148.058 28.5256C147.7 28.6108 147.271 28.6648 146.771 28.6875C145.794 28.733 144.956 28.6193 144.257 28.3466C143.564 28.0682 143.033 27.6364 142.663 27.0511C142.3 26.4659 142.124 25.7301 142.135 24.8438V12.2727ZM156.768 28.7472C155.399 28.7472 154.217 28.4773 153.223 27.9375C152.234 27.392 151.473 26.6165 150.939 25.6108C150.411 24.5994 150.146 23.3977 150.146 22.0057C150.146 20.6534 150.413 19.4716 150.947 18.4602C151.482 17.4432 152.234 16.6534 153.206 16.0909C154.178 15.5227 155.322 15.2386 156.641 15.2386C157.572 15.2386 158.425 15.3835 159.197 15.6733C159.97 15.9631 160.638 16.392 161.2 16.9602C161.763 17.5284 162.2 18.2301 162.513 19.0653C162.825 19.8949 162.982 20.8466 162.982 21.9205V22.9602H151.604V20.5398H159.104C159.098 20.0966 158.993 19.7017 158.788 19.3551C158.584 19.0085 158.303 18.7386 157.945 18.5455C157.592 18.3466 157.186 18.2472 156.726 18.2472C156.26 18.2472 155.842 18.3523 155.473 18.5625C155.104 18.767 154.811 19.0483 154.595 19.4062C154.379 19.7585 154.266 20.1591 154.254 20.608V23.071C154.254 23.6051 154.359 24.0739 154.57 24.4773C154.78 24.875 155.078 25.1847 155.464 25.4062C155.851 25.6278 156.311 25.7386 156.845 25.7386C157.214 25.7386 157.55 25.6875 157.851 25.5852C158.152 25.483 158.411 25.3324 158.626 25.1335C158.842 24.9347 159.004 24.6903 159.112 24.4006L162.939 24.5114C162.78 25.3693 162.43 26.1165 161.891 26.7528C161.357 27.3835 160.655 27.875 159.786 28.2273C158.916 28.5739 157.911 28.7472 156.768 28.7472ZM165.11 28.5V15.4091H169.158V17.7955H169.295C169.533 16.9318 169.923 16.2898 170.462 15.8693C171.002 15.4432 171.63 15.2301 172.346 15.2301C172.539 15.2301 172.738 15.2443 172.942 15.2727C173.147 15.2955 173.337 15.3324 173.513 15.3835V19.0057C173.315 18.9375 173.053 18.8835 172.729 18.8438C172.411 18.804 172.127 18.7841 171.877 18.7841C171.383 18.7841 170.937 18.8949 170.539 19.1165C170.147 19.3324 169.837 19.6364 169.61 20.0284C169.388 20.4148 169.278 20.8693 169.278 21.392V28.5H165.11Z" fill="#0369A1"/>
</svg>
