<svg width="174" height="40" viewBox="0 0 174 40" fill="none" xmlns="http://www.w3.org/2000/svg">
<path d="M51.321 28V10.5455H58.5312C59.8381 10.5455 60.9659 10.8011 61.9148 11.3125C62.8693 11.8182 63.6051 12.5256 64.1222 13.4347C64.6392 14.3381 64.8977 15.3892 64.8977 16.5881C64.8977 17.7926 64.6335 18.8466 64.1051 19.75C63.5824 20.6477 62.8352 21.3437 61.8636 21.8381C60.892 22.3324 59.7386 22.5795 58.4034 22.5795H53.9545V19.2557H57.6193C58.2557 19.2557 58.7869 19.1449 59.2131 18.9233C59.6449 18.7017 59.9716 18.392 60.1932 17.9943C60.4148 17.5909 60.5256 17.1222 60.5256 16.5881C60.5256 16.0483 60.4148 15.5824 60.1932 15.1903C59.9716 14.7926 59.6449 14.4858 59.2131 14.2699C58.7813 14.054 58.25 13.946 57.6193 13.946H55.5398V28H51.321ZM66.9773 28V14.9091H71.0256V17.2955H71.1619C71.4006 16.4318 71.7898 15.7898 72.3295 15.3693C72.8693 14.9432 73.4972 14.7301 74.2131 14.7301C74.4063 14.7301 74.6051 14.7443 74.8097 14.7727C75.0142 14.7955 75.2045 14.8324 75.3807 14.8835V18.5057C75.1818 18.4375 74.9205 18.3835 74.5966 18.3438C74.2784 18.304 73.9943 18.2841 73.7443 18.2841C73.25 18.2841 72.804 18.3949 72.4062 18.6165C72.0142 18.8324 71.7045 19.1364 71.4773 19.5284C71.2557 19.9148 71.1449 20.3693 71.1449 20.892V28H66.9773ZM82.5099 28.2472C81.1349 28.2472 79.9531 27.9659 78.9645 27.4034C77.9815 26.8352 77.223 26.0455 76.6889 25.0341C76.1605 24.017 75.8963 22.8381 75.8963 21.4972C75.8963 20.1506 76.1605 18.9716 76.6889 17.9602C77.223 16.9432 77.9815 16.1534 78.9645 15.5909C79.9531 15.0227 81.1349 14.7386 82.5099 14.7386C83.8849 14.7386 85.0639 15.0227 86.0469 15.5909C87.0355 16.1534 87.794 16.9432 88.3224 17.9602C88.8565 18.9716 89.1236 20.1506 89.1236 21.4972C89.1236 22.8381 88.8565 24.017 88.3224 25.0341C87.794 26.0455 87.0355 26.8352 86.0469 27.4034C85.0639 27.9659 83.8849 28.2472 82.5099 28.2472ZM82.5355 25.1023C83.0355 25.1023 83.4588 24.9489 83.8054 24.642C84.152 24.3352 84.4162 23.9091 84.598 23.3636C84.7855 22.8182 84.8793 22.1875 84.8793 21.4716C84.8793 20.7443 84.7855 20.108 84.598 19.5625C84.4162 19.017 84.152 18.5909 83.8054 18.2841C83.4588 17.9773 83.0355 17.8239 82.5355 17.8239C82.0185 17.8239 81.581 17.9773 81.223 18.2841C80.8707 18.5909 80.6009 19.017 80.4134 19.5625C80.2315 20.108 80.1406 20.7443 80.1406 21.4716C80.1406 22.1875 80.2315 22.8182 80.4134 23.3636C80.6009 23.9091 80.8707 24.3352 81.223 24.642C81.581 24.9489 82.0185 25.1023 82.5355 25.1023ZM91.2585 10.5455H96.483L100.915 21.3523H101.119L105.551 10.5455H110.776V28H106.668V17.2784H106.523L102.33 27.8892H99.7045L95.5114 17.2188H95.3665V28H91.2585V10.5455ZM117.097 28.2216C116.262 28.2216 115.521 28.0824 114.873 27.804C114.231 27.5199 113.722 27.0937 113.347 26.5256C112.978 25.9517 112.793 25.233 112.793 24.3693C112.793 23.642 112.921 23.0284 113.177 22.5284C113.433 22.0284 113.785 21.6222 114.234 21.3097C114.683 20.9972 115.2 20.7614 115.785 20.6023C116.37 20.4375 116.995 20.3267 117.66 20.2699C118.404 20.2017 119.004 20.1307 119.458 20.0568C119.913 19.9773 120.242 19.8665 120.447 19.7244C120.657 19.5767 120.762 19.3693 120.762 19.1023V19.0597C120.762 18.6222 120.612 18.2841 120.31 18.0455C120.009 17.8068 119.603 17.6875 119.092 17.6875C118.54 17.6875 118.097 17.8068 117.762 18.0455C117.427 18.2841 117.214 18.6136 117.123 19.0341L113.279 18.8977C113.393 18.1023 113.685 17.392 114.157 16.767C114.634 16.1364 115.288 15.642 116.117 15.2841C116.952 14.9205 117.955 14.7386 119.126 14.7386C119.961 14.7386 120.731 14.8381 121.435 15.0369C122.14 15.2301 122.754 15.5142 123.276 15.8892C123.799 16.2585 124.202 16.7131 124.487 17.2528C124.776 17.7926 124.921 18.4091 124.921 19.1023V28H121.001V26.1761H120.898C120.665 26.6193 120.367 26.9943 120.004 27.3011C119.646 27.608 119.222 27.8381 118.734 27.9915C118.251 28.1449 117.705 28.2216 117.097 28.2216ZM118.384 25.4943C118.833 25.4943 119.237 25.4034 119.594 25.2216C119.958 25.0398 120.248 24.7898 120.464 24.4716C120.68 24.1477 120.788 23.7727 120.788 23.3466V22.1023C120.668 22.1648 120.523 22.2216 120.353 22.2727C120.188 22.3239 120.006 22.3722 119.808 22.4176C119.609 22.4631 119.404 22.5028 119.194 22.5369C118.984 22.571 118.782 22.6023 118.589 22.6307C118.197 22.6932 117.862 22.7898 117.583 22.9205C117.31 23.0511 117.1 23.2216 116.952 23.4318C116.81 23.6364 116.739 23.8807 116.739 24.1648C116.739 24.5966 116.893 24.9261 117.2 25.1534C117.512 25.3807 117.907 25.4943 118.384 25.4943ZM138.898 18.9062L135.072 19.0085C135.032 18.7358 134.924 18.4943 134.748 18.2841C134.572 18.0682 134.342 17.9006 134.058 17.7812C133.779 17.6562 133.455 17.5938 133.086 17.5938C132.603 17.5938 132.191 17.6903 131.85 17.8835C131.515 18.0767 131.35 18.3381 131.356 18.6676C131.35 18.9233 131.452 19.1449 131.663 19.3324C131.879 19.5199 132.262 19.6705 132.813 19.7841L135.336 20.2614C136.643 20.5114 137.614 20.9261 138.251 21.5057C138.893 22.0852 139.217 22.8523 139.222 23.8068C139.217 24.7045 138.95 25.4858 138.421 26.1506C137.898 26.8153 137.183 27.3324 136.273 27.7017C135.364 28.0653 134.325 28.2472 133.154 28.2472C131.285 28.2472 129.81 27.8636 128.731 27.0966C127.657 26.3239 127.043 25.2898 126.89 23.9943L131.006 23.892C131.097 24.3693 131.333 24.733 131.714 24.983C132.094 25.233 132.58 25.358 133.171 25.358C133.705 25.358 134.14 25.2585 134.475 25.0597C134.81 24.8608 134.981 24.5966 134.987 24.267C134.981 23.9716 134.85 23.7358 134.594 23.5597C134.339 23.3778 133.938 23.2358 133.393 23.1335L131.109 22.6989C129.796 22.4602 128.819 22.0199 128.177 21.3778C127.535 20.7301 127.217 19.9062 127.222 18.9062C127.217 18.0312 127.45 17.2841 127.921 16.6648C128.393 16.0398 129.063 15.5625 129.933 15.233C130.802 14.9034 131.827 14.7386 133.009 14.7386C134.782 14.7386 136.18 15.1108 137.202 15.8551C138.225 16.5937 138.79 17.6108 138.898 18.9062ZM148.663 14.9091V17.9773H140.405V14.9091H148.663ZM142.135 11.7727H146.303V23.8835C146.303 24.1392 146.342 24.3466 146.422 24.5057C146.507 24.6591 146.629 24.7699 146.788 24.8381C146.947 24.9006 147.138 24.9318 147.359 24.9318C147.518 24.9318 147.686 24.9176 147.862 24.8892C148.044 24.8551 148.18 24.8267 148.271 24.804L148.902 27.8125C148.703 27.8693 148.422 27.9403 148.058 28.0256C147.7 28.1108 147.271 28.1648 146.771 28.1875C145.794 28.233 144.956 28.1193 144.257 27.8466C143.564 27.5682 143.033 27.1364 142.663 26.5511C142.3 25.9659 142.124 25.2301 142.135 24.3438V11.7727ZM156.768 28.2472C155.399 28.2472 154.217 27.9773 153.223 27.4375C152.234 26.892 151.473 26.1165 150.939 25.1108C150.411 24.0994 150.146 22.8977 150.146 21.5057C150.146 20.1534 150.413 18.9716 150.947 17.9602C151.482 16.9432 152.234 16.1534 153.206 15.5909C154.178 15.0227 155.322 14.7386 156.641 14.7386C157.572 14.7386 158.425 14.8835 159.197 15.1733C159.97 15.4631 160.638 15.892 161.2 16.4602C161.763 17.0284 162.2 17.7301 162.513 18.5653C162.825 19.3949 162.982 20.3466 162.982 21.4205V22.4602H151.604V20.0398H159.104C159.098 19.5966 158.993 19.2017 158.788 18.8551C158.584 18.5085 158.303 18.2386 157.945 18.0455C157.592 17.8466 157.186 17.7472 156.726 17.7472C156.26 17.7472 155.842 17.8523 155.473 18.0625C155.104 18.267 154.811 18.5483 154.595 18.9062C154.379 19.2585 154.266 19.6591 154.254 20.108V22.571C154.254 23.1051 154.359 23.5739 154.57 23.9773C154.78 24.375 155.078 24.6847 155.464 24.9062C155.851 25.1278 156.311 25.2386 156.845 25.2386C157.214 25.2386 157.55 25.1875 157.851 25.0852C158.152 24.983 158.411 24.8324 158.626 24.6335C158.842 24.4347 159.004 24.1903 159.112 23.9006L162.939 24.0114C162.78 24.8693 162.43 25.6165 161.891 26.2528C161.357 26.8835 160.655 27.375 159.786 27.7273C158.916 28.0739 157.911 28.2472 156.768 28.2472ZM165.11 28V14.9091H169.158V17.2955H169.295C169.533 16.4318 169.923 15.7898 170.462 15.3693C171.002 14.9432 171.63 14.7301 172.346 14.7301C172.539 14.7301 172.738 14.7443 172.942 14.7727C173.147 14.7955 173.337 14.8324 173.513 14.8835V18.5057C173.315 18.4375 173.053 18.3835 172.729 18.3438C172.411 18.304 172.127 18.2841 171.877 18.2841C171.383 18.2841 170.937 18.3949 170.539 18.6165C170.147 18.8324 169.837 19.1364 169.61 19.5284C169.388 19.9148 169.278 20.3693 169.278 20.892V28H165.11Z" fill="url(#paint0_linear_173_44)"/>
<circle cx="20" cy="20" r="20" fill="url(#paint1_linear_173_44)"/>
<path d="M19.1835 28.6459C18.3664 27.6498 17.0025 26.5844 15.6816 25.9103C14.3478 25.2296 13.0809 24.8516 11.6425 24.7054C11.3589 24.6768 11.1238 24.6502 11.12 24.6464C11.1164 24.6464 11.1237 21.572 11.1384 17.8229L11.1626 11.0067L11.4244 11.0333C13.0324 11.1989 14.8271 11.8298 16.185 12.709C17.3553 13.4666 18.5638 14.6365 19.3342 15.7576L19.5281 16.0397V22.5144C19.5281 26.0754 19.5135 28.9884 19.4959 28.9878C19.4775 28.9872 19.3372 28.8332 19.1835 28.6459ZM20.5156 22.498V15.9963L20.89 15.4768C21.3681 14.8136 22.3297 13.8144 22.9656 13.3204C24.6653 11.9996 26.5092 11.2532 28.626 11.0286L28.8945 11V17.8258V24.6517L28.583 24.6822C25.6355 24.9669 23.0802 26.2296 21.0815 28.3886L20.5156 29V22.498ZM22.3418 28.558C23.4986 27.4311 25.0301 26.5357 26.5685 26.0862C27.3735 25.8511 28.4203 25.6871 29.1153 25.6871C29.4797 25.6871 29.6818 25.6052 29.7958 25.4109C29.8816 25.2643 29.8825 25.2013 29.8827 19.6703L29.8828 14.0773L30.044 14.1077C30.1325 14.1268 30.3839 14.1991 30.6025 14.2714L31 14.4028V21.3829C31 25.222 30.9853 28.3631 30.9672 28.3631C30.9489 28.3631 30.6832 28.3041 30.3764 28.2317C29.1637 27.9481 28.1651 27.8506 26.8536 27.8874C25.2627 27.9331 24.0264 28.1634 22.5567 28.6907L21.9981 28.8911L22.3418 28.558ZM17.4433 28.6665C16.8329 28.4396 15.8249 28.1721 15.1445 28.0568C14.2192 27.9007 13.5809 27.8592 12.4469 27.8855C11.3201 27.9102 10.6386 27.9921 9.7089 28.2112C9.44893 28.2721 9.18306 28.3349 9.11807 28.3482L9 28.3749L9.0002 21.3761L9.00042 14.3771L9.50512 14.2248C9.78269 14.1411 10.034 14.063 10.0635 14.0535C10.1062 14.0345 10.1172 15.1747 10.1172 19.6402C10.1172 25.7424 10.1044 25.4023 10.3552 25.5734C10.4424 25.6324 10.6238 25.6591 11.1415 25.6914C13.1994 25.8133 15.152 26.5307 16.7461 27.7515C17.0898 28.0147 17.9148 28.7377 17.9621 28.8171C17.9951 28.8723 17.9731 28.8666 17.4434 28.6686L17.4433 28.6665Z" fill="white"/>
<defs>
<linearGradient id="paint0_linear_173_44" x1="112" y1="5" x2="112" y2="34" gradientUnits="userSpaceOnUse">
<stop offset="0.0987722" stop-color="#00B4FC"/>
<stop offset="0.901105" stop-color="#012677"/>
</linearGradient>
<linearGradient id="paint1_linear_173_44" x1="20" y1="0" x2="20" y2="40" gradientUnits="userSpaceOnUse">
<stop stop-color="#00B4FC"/>
<stop offset="1" stop-color="#012677"/>
</linearGradient>
</defs>
</svg>
